<svg width="300" height="300" viewBox="0 0 300 300" fill="none" xmlns="http://www.w3.org/2000/svg">
<rect width="300" height="300" fill="white"/>
<path d="M223.922 300H76.0779C34.0613 300 0 265.941 0 223.923V76.077C0 34.0615 34.0613 0 76.0779 0H223.922C265.94 0 300.001 34.0615 300.001 76.077V223.923C300.001 265.941 265.94 300 223.922 300Z" fill="url(#paint0_linear)"/>
<path d="M149.992 113.85C169.97 113.85 186.151 130.031 186.151 150.007C186.151 169.973 169.97 186.151 149.992 186.151C130.031 186.151 113.85 169.973 113.85 150.007C113.85 130.031 130.031 113.85 149.992 113.85Z" fill="white"/>
<path d="M195.231 184.898C202.72 175.232 207.162 163.134 207.162 150.001C207.162 118.466 181.528 92.8303 149.992 92.8303C118.473 92.8303 92.8368 118.466 92.8368 150.001C92.8368 181.522 118.473 207.171 149.992 207.171C158.848 207.171 167.253 205.147 174.743 201.529L197.856 224.641C184.048 233.529 167.613 238.69 149.992 238.69C101.092 238.69 61.3167 198.902 61.3167 150.001C61.3167 101.086 101.092 61.3116 149.992 61.3116C198.906 61.3116 238.683 101.086 238.683 150.001C238.683 171.825 230.758 191.848 217.641 207.307L195.231 184.898" fill="white"/>
<path d="M186.151 150.007C186.151 169.973 169.97 186.151 149.992 186.151C130.031 186.151 113.85 169.973 113.85 150.007C113.85 130.031 130.031 113.85 149.992 113.85C169.97 113.85 186.151 130.031 186.151 150.007Z" fill="white"/>
<path d="M186.151 150.007C186.151 169.973 169.97 186.151 149.992 186.151C130.031 186.151 113.85 169.973 113.85 150.007C113.85 130.031 130.031 113.85 149.992 113.85C169.97 113.85 186.151 130.031 186.151 150.007Z" fill="white"/>
<defs>
<linearGradient id="paint0_linear" x1="0" y1="0" x2="300" y2="300" gradientUnits="userSpaceOnUse">
<stop stop-color="#9500C9"/>
<stop offset="1" stop-color="#56379C"/>
</linearGradient>
</defs>
</svg>
